<svg width="56" height="56" viewBox="0 0 56 56" fill="none" xmlns="http://www.w3.org/2000/svg">
<g clip-path="url(#clip0_62_379)" filter="url(#filter0_d_62_379)">
<path d="M28 0C14.7656 0 4 10.7666 4 24C4 37.2334 14.7656 48 28 48C41.2344 48 52 37.2334 52 24C52 10.7666 41.2344 0 28 0ZM37.541 24.8408L23.5411 33.8408C23.377 33.9473 23.1875 34 23 34C22.836 34 22.6699 33.959 22.5215 33.878C22.1992 33.7022 22 33.3662 22 33V15C22 14.6338 22.1992 14.2978 22.5215 14.122C22.8379 13.9482 23.2344 13.9589 23.5411 14.1592L37.541 23.1592C37.8262 23.3427 38 23.6602 38 24C38 24.3398 37.8262 24.6572 37.541 24.8408Z" fill="white"/>
</g>
<defs>
<filter id="filter0_d_62_379" x="0" y="0" width="56" height="56" filterUnits="userSpaceOnUse" color-interpolation-filters="sRGB">
<feFlood flood-opacity="0" result="BackgroundImageFix"/>
<feColorMatrix in="SourceAlpha" type="matrix" values="0 0 0 0 0 0 0 0 0 0 0 0 0 0 0 0 0 0 127 0" result="hardAlpha"/>
<feOffset dy="4"/>
<feGaussianBlur stdDeviation="2"/>
<feComposite in2="hardAlpha" operator="out"/>
<feColorMatrix type="matrix" values="0 0 0 0 0 0 0 0 0 0 0 0 0 0 0 0 0 0 0.25 0"/>
<feBlend mode="normal" in2="BackgroundImageFix" result="effect1_dropShadow_62_379"/>
<feBlend mode="normal" in="SourceGraphic" in2="effect1_dropShadow_62_379" result="shape"/>
</filter>
<clipPath id="clip0_62_379">
<rect width="48" height="48" fill="white" transform="translate(4)"/>
</clipPath>
</defs>
</svg>
